<?xml version="1.0" standalone="no"?>
<!DOCTYPE svg PUBLIC "-//W3C//DTD SVG 20010904//EN"
 "http://www.w3.org/TR/2001/REC-SVG-20010904/DTD/svg10.dtd">
<svg version="1.0" xmlns="http://www.w3.org/2000/svg"
 width="256.000000pt" height="256.000000pt" viewBox="0 0 256.000000 256.000000"
 preserveAspectRatio="xMidYMid meet">
<metadata>
Created by potrace 1.11, written by Peter Selinger 2001-2013
</metadata>
<g transform="translate(0.000000,256.000000) scale(0.100000,-0.100000)"
fill="#000000" stroke="none">
<path d="M1112 2544 c-122 -19 -315 -75 -394 -114 -35 -17 -90 -50 -123 -74
-99 -69 -112 -47 265 -467 215 -239 336 -367 357 -375 43 -19 117 -18 158 1
33 16 68 56 438 497 147 176 207 254 207 272 0 66 -270 202 -500 251 -107 23
-295 28 -408 9z"/>
<path d="M288 2122 c-134 -141 -228 -345 -270 -587 -17 -100 -19 -146 -15
-275 13 -358 133 -644 365 -874 245 -243 528 -370 853 -383 347 -14 675 113
943 367 114 108 195 217 256 345 204 426 181 929 -61 1286 -60 89 -147 179
-173 179 -16 0 -96 -89 -307 -342 -157 -189 -322 -388 -366 -444 -90 -111
-125 -135 -210 -142 -74 -6 -125 22 -205 111 -35 39 -208 236 -383 437 -176
201 -324 368 -330 372 -23 17 -44 5 -97 -50z"/>
</g>
</svg>
